<?xml version="1.0" encoding="utf-8"?>
<!DOCTYPE svg PUBLIC "-//W3C//DTD SVG 1.1//EN" "http://www.w3.org/Graphics/SVG/1.1/DTD/svg11.dtd">
<svg xmlns="http://www.w3.org/2000/svg" xmlns:xlink="http://www.w3.org/1999/xlink" x="0px" y="0px" width="17px" height="14px" viewBox="0 0 17 14" enable-background="new 0 0 17 14" xml:space="preserve">
	<path fill-rule="evenodd" fill="rgb(0, 124, 162)" d="M8.289,1.693 L13.313,5.987 L0.998,5.987 C0.448,5.987 -0.000,6.434 -0.000,6.983 C-0.000,7.532 0.448,7.979 0.998,7.979 L13.313,7.979 L8.289,12.279 C7.898,12.669 7.898,13.294 8.289,13.683 C8.679,14.072 9.306,14.072 9.690,13.683 L16.648,7.736 C16.654,7.729 16.667,7.723 16.673,7.717 C16.686,7.711 16.699,7.711 16.712,7.704 C16.725,7.691 16.718,7.679 16.725,7.666 C16.891,7.487 17.000,7.250 17.000,6.989 C17.000,6.727 16.891,6.492 16.725,6.313 C16.718,6.301 16.718,6.287 16.712,6.274 C16.699,6.262 16.686,6.262 16.673,6.256 C16.667,6.249 16.654,6.243 16.641,6.237 L9.690,0.289 C9.306,-0.101 8.673,-0.101 8.289,0.289 C7.898,0.679 7.898,1.303 8.289,1.693 Z"/>
</svg>