<?xml version="1.0" encoding="utf-8"?>
<!DOCTYPE svg PUBLIC "-//W3C//DTD SVG 1.1//EN" "http://www.w3.org/Graphics/SVG/1.1/DTD/svg11.dtd">
<svg xmlns="http://www.w3.org/2000/svg" xmlns:xlink="http://www.w3.org/1999/xlink" x="0px" y="0px" width="147px" height="60px" viewBox="0 0 147 60" enable-background="new 0 0 147 60" xml:space="preserve">
	<path fill-rule="evenodd" fill="rgb(0, 0, 0)" d="M142.824,52.916 C141.401,52.916 140.634,52.560 139.585,51.662 L140.803,50.465 C141.439,51.026 141.944,51.288 142.824,51.288 C144.248,51.288 145.090,50.409 145.090,48.875 L145.090,47.660 C144.416,48.426 143.723,48.745 142.693,48.745 C141.720,48.745 140.914,48.464 140.353,47.903 C139.398,46.931 139.304,45.340 139.304,44.050 L139.304,43.750 C139.304,41.992 139.641,40.945 140.353,40.234 C140.933,39.655 141.720,39.374 142.712,39.374 C143.779,39.374 144.435,39.710 145.146,40.477 L145.146,39.486 L147.000,39.486 L147.000,48.931 C147.000,51.363 145.371,52.916 142.824,52.916 ZM143.143,41.076 C141.776,41.076 141.214,41.955 141.214,44.050 C141.214,46.163 141.776,47.024 143.161,47.024 C144.510,47.024 145.090,46.163 145.090,44.068 C145.090,41.936 144.529,41.076 143.143,41.076 ZM135.839,43.189 C135.839,41.862 135.128,41.076 133.911,41.076 C132.694,41.076 131.964,41.862 131.964,43.189 L131.964,48.969 L130.054,48.969 L130.054,39.486 L131.945,39.486 L131.945,40.440 C132.656,39.729 133.443,39.374 134.454,39.374 C136.495,39.374 137.749,40.720 137.749,42.909 L137.749,48.969 L135.839,48.969 L135.839,43.189 ZM127.001,37.635 C126.328,37.635 125.766,37.073 125.766,36.400 C125.766,35.708 126.328,35.166 127.001,35.166 C127.676,35.166 128.238,35.708 128.238,36.363 C128.238,37.073 127.695,37.635 127.001,37.635 ZM122.620,41.076 C121.459,41.076 120.691,41.936 120.691,43.208 L120.691,48.969 L118.781,48.969 L118.781,39.486 L120.672,39.486 L120.672,40.515 C121.347,39.729 122.189,39.374 123.238,39.374 C124.212,39.374 124.754,39.636 125.447,40.272 L124.005,41.712 C123.518,41.226 123.182,41.076 122.620,41.076 ZM110.730,29.621 C111.791,29.621 112.355,29.356 113.383,28.330 L117.230,32.172 C116.036,33.298 115.472,33.696 114.444,34.126 C113.383,34.557 112.123,34.788 110.762,34.788 C108.077,34.788 105.822,33.894 104.131,32.139 C103.036,31.013 102.241,29.422 102.041,28.064 C101.908,27.038 101.743,25.282 101.743,22.798 L101.743,21.970 C101.743,17.365 102.307,15.345 104.131,13.456 C105.822,11.701 108.044,10.807 110.730,10.807 C112.123,10.807 113.350,11.038 114.444,11.468 C115.472,11.899 116.036,12.297 117.230,13.423 L113.383,17.266 C112.355,16.238 111.791,15.974 110.730,15.974 C109.734,15.974 108.939,16.306 108.441,16.967 C107.745,17.862 107.546,19.253 107.546,23.327 C107.546,26.375 107.779,27.800 108.441,28.628 C108.972,29.291 109.734,29.621 110.730,29.621 ZM104.007,39.374 C106.460,39.374 108.015,41.151 108.015,43.938 L108.015,44.798 L101.873,44.798 C101.910,46.387 102.584,47.454 104.364,47.454 C105.319,47.454 105.917,47.118 106.592,46.462 L107.790,47.603 C106.722,48.651 105.805,49.081 104.288,49.081 C101.442,49.081 99.981,47.398 99.981,44.181 C99.981,41.207 101.517,39.374 104.007,39.374 ZM106.142,43.451 C106.048,42.160 105.562,40.964 104.007,40.964 C102.472,40.964 101.910,42.142 101.873,43.451 L106.142,43.451 ZM92.923,23.294 L89.765,28.814 C88.860,30.397 86.575,30.397 85.669,28.815 L82.509,23.294 L82.509,34.590 L76.706,34.590 L76.706,11.005 L82.410,11.005 L87.716,21.407 L93.023,11.005 L98.726,11.005 L98.726,34.590 L92.923,34.590 L92.923,23.294 ZM73.504,43.189 C73.504,41.862 72.792,41.076 71.575,41.076 C70.358,41.076 69.628,41.862 69.628,43.189 L69.628,48.969 L67.718,48.969 L67.718,39.486 L69.609,39.486 L69.609,40.440 C70.320,39.729 71.107,39.374 72.119,39.374 C74.159,39.374 75.413,40.720 75.413,42.909 L75.413,48.969 L73.504,48.969 L73.504,43.189 ZM58.124,11.005 L74.175,11.005 L74.175,16.173 L63.927,16.173 L63.927,20.115 L72.682,20.115 L72.682,25.282 L63.927,25.282 L63.927,29.422 L74.175,29.422 L74.175,34.590 L58.124,34.590 L58.124,11.005 ZM62.100,39.374 C64.553,39.374 66.108,41.151 66.108,43.938 L66.108,44.798 L59.966,44.798 C60.003,46.387 60.677,47.454 62.457,47.454 C63.411,47.454 64.010,47.118 64.685,46.462 L65.883,47.603 C64.815,48.651 63.897,49.081 62.381,49.081 C59.535,49.081 58.074,47.398 58.074,44.181 C58.074,41.207 59.610,39.374 62.100,39.374 ZM64.235,43.451 C64.141,42.160 63.655,40.964 62.100,40.964 C60.565,40.964 60.003,42.142 59.966,43.451 L64.235,43.451 ZM80.376,39.374 C81.443,39.374 82.099,39.710 82.810,40.477 L82.810,39.486 L84.664,39.486 L84.664,48.931 C84.664,51.363 83.035,52.916 80.488,52.916 C79.065,52.916 78.297,52.560 77.248,51.662 L78.466,50.465 C79.102,51.026 79.608,51.288 80.488,51.288 C81.911,51.288 82.754,50.409 82.754,48.875 L82.754,47.660 C82.080,48.426 81.387,48.745 80.357,48.745 C79.384,48.745 78.578,48.464 78.017,47.903 C77.062,46.931 76.968,45.340 76.968,44.050 L76.968,43.750 C76.968,41.992 77.305,40.945 78.017,40.234 C78.596,39.655 79.384,39.374 80.376,39.374 ZM80.826,47.024 C82.174,47.024 82.754,46.163 82.754,44.068 C82.754,41.936 82.192,41.076 80.807,41.076 C79.440,41.076 78.878,41.955 78.878,44.050 C78.878,46.163 79.440,47.024 80.826,47.024 ZM87.717,35.166 C88.390,35.166 88.952,35.708 88.952,36.363 C88.952,37.073 88.409,37.635 87.717,37.635 C87.042,37.635 86.480,37.073 86.480,36.400 C86.480,35.708 87.042,35.166 87.717,35.166 ZM88.672,48.969 L86.762,48.969 L86.762,39.486 L88.672,39.486 L88.672,48.969 ZM92.660,40.440 C93.371,39.729 94.158,39.374 95.169,39.374 C97.210,39.374 98.464,40.720 98.464,42.909 L98.464,48.969 L96.555,48.969 L96.555,43.189 C96.555,41.862 95.843,41.076 94.626,41.076 C93.408,41.076 92.678,41.862 92.678,43.189 L92.678,48.969 L90.768,48.969 L90.768,39.486 L92.660,39.486 L92.660,40.440 ZM113.164,39.374 C115.617,39.374 117.171,41.151 117.171,43.938 L117.171,44.798 L111.029,44.798 C111.067,46.387 111.741,47.454 113.520,47.454 C114.475,47.454 115.074,47.118 115.748,46.462 L116.946,47.603 C115.879,48.651 114.962,49.081 113.445,49.081 C110.599,49.081 109.138,47.398 109.138,44.181 C109.138,41.207 110.674,39.374 113.164,39.374 ZM115.299,43.451 C115.205,42.160 114.718,40.964 113.164,40.964 C111.629,40.964 111.067,42.142 111.029,43.451 L115.299,43.451 ZM127.956,48.969 L126.047,48.969 L126.047,39.486 L127.956,39.486 L127.956,48.969 Z"/>
	<path fill-rule="evenodd" fill="rgb(0, 124, 162)" d="M46.462,21.472 L36.084,11.178 L27.303,19.888 L37.681,30.182 L27.303,40.476 L36.084,49.187 L46.462,38.893 C51.312,34.082 51.312,26.283 46.462,21.472 Z"/>
	<path fill-rule="evenodd" fill="rgb(107, 166, 195)" d="M33.686,51.315 L30.519,54.472 L9.142,33.157 C7.393,31.413 7.393,28.585 9.142,26.841 L30.519,5.526 L33.686,8.684 L12.309,30.000 L33.686,51.315 ZM6.767,35.525 L28.144,56.841 L24.977,59.999 L3.600,38.683 C-1.210,33.887 -1.210,26.111 3.600,21.315 L24.977,-0.000 L28.144,3.158 L6.767,24.473 C3.706,27.525 3.706,32.473 6.767,35.525 Z"/>
</svg>